<?xml version="1.0" encoding="UTF-8"?>
<svg id="Layer_2" data-name="Layer 2" xmlns="http://www.w3.org/2000/svg" viewBox="0 0 278 205.78">
  <defs>
    <style>
      .cls-1 {
        fill: #ef7e20;
        fill-rule: evenodd;
      }
    </style>
  </defs>
  <g id="Logo">
    <g>
      <path class="cls-1" d="M167.87,0c-9.99,98.4,26.72,143.46,110.13,135.19-.88,24.15-18.48,54.74-39.42,63.21-32.92,13.32-76.12-5.05-113.61,7.38,0,0,0,0,0,0-.16-.07-.31-.14-.47-.21,0-.02,0-.03,0-.05,0,.01-.02.03-.03.04-4.9-2.26-9.67-5.33-14.38-7.68,13.59-4,27.49-6.3,40.22-6.96,49.8-2.58,88.77,14.17,106.9-27.11-50.69,36.4-119.54-.82-184.18,2.74-9.15.5-17.97,2.71-26.31,6-15.13-8.23-30.63-15.46-46.73-20.37C31.27,84.83,98.47,23.83,167.87,0Z"/>
      <path class="cls-1" d="M215.36,110.33c-21.82-13.56-34.26-36.33-37.31-68.32,10.7-9.82,24.44-17.19,41.21-22.12-11.59,33.72-12.89,63.87-3.9,90.44Z"/>
    </g>
  </g>
</svg>