<?xml version="1.0" encoding="UTF-8"?>
<svg id="Layer_1" data-name="Layer 1" xmlns="http://www.w3.org/2000/svg" viewBox="0 0 1024 1024">
  <defs>
    <style>
      .cls-1 {
        fill: #ff9b00;
      }

      .cls-2 {
        fill: #a900e3;
      }

      .cls-3 {
        fill: #ffd908;
      }

      .cls-4 {
        fill: #e90078;
      }

      .cls-5 {
        fill: #59009a;
      }

      .cls-6 {
        fill: #ff2934;
      }

      .cls-7 {
        fill: #ffc704;
      }

      .cls-8 {
        fill: #6b00a1;
      }

      .cls-9 {
        fill: #9200b3;
      }

      .cls-10 {
        fill: #d3d900;
      }

      .cls-11 {
        fill: #ff5900;
      }
    </style>
  </defs>
  <path class="cls-11" d="M510.63,795.42c.91,0,1.82,0,2.73,0-3.16-101.72-.58-321.77,75.48-392.36,2.22-2.25,6.65-6.79,12.71-13.17-21.87,5.85-64.78,16.59-84.98,16.59s-70.87-11.4-94.63-17.11c6.31,6.66,10.93,11.38,13.2,13.69,76.06,70.58,78.64,290.64,75.48,392.36Z"/>
  <path class="cls-10" d="M321.79,534.64c26.14-56.8,12.56-138.15-39.56-212.25-42.28-60.11-17.83-157.84-17.83-157.84-33.68,3.36-87.16,82.27-63.39,204.85,23.56,121.46,74.33,163.79,44.41,244.6,9.01-12.26,38.83-50.89,76.37-79.37Z"/>
  <path class="cls-3" d="M282.23,322.39c52.12,74.1,65.7,155.45,39.56,212.25,21.37-16.21,45.24-29.12,69.19-31.99-1.52-6.27-1.6-12.06.2-17.39,19.81-58.77,17.83-99.07,17.83-99.07,9.56,3.81,18.24,9.54,26.14,16.87-2.28-2.31-6.89-7.03-13.2-13.69-37.57-39.63-135.27-147.93-157.54-224.81,0,0-24.45,97.73,17.83,157.84Z"/>
  <path class="cls-7" d="M369.95,599.99c-2.55-10.22-2.54-17.34-2.54-17.34,85.18,16.79,106.97,132.65,106.97,132.65-.31-1.58-1.05-3.44-2.27-5.57,8.67,32.87,3.96,66.04-13.35,92.53,6.19-2.91,17.29-4.89,30.17-5.94,12.73-57.1-12.3-145.93-28.41-176.72-26.36-50.35-62.67-88.61-69.53-116.95-23.95,2.88-47.82,15.78-69.19,31.99-37.54,28.48-67.35,67.11-76.37,79.37-1.84,2.5-2.81,3.9-2.81,3.9,0,0,64.41-40.34,127.34-17.92Z"/>
  <path class="cls-1" d="M435.15,403.06c-7.9-7.33-16.58-13.06-26.14-16.87,0,0,1.98,40.3-17.83,99.07-1.8,5.32-1.71,11.11-.2,17.39,6.86,28.34,43.17,66.59,69.53,116.95,16.11,30.79,41.15,119.63,28.41,176.72,6.88-.56,14.28-.86,21.7-.89,3.16-101.72.58-321.78-75.48-392.36Z"/>
  <path class="cls-10" d="M453.55,808.17c-.27-2.28,1.67-4.25,5.22-5.91,17.31-26.49,22.02-59.67,13.35-92.53-6.54-11.53-26.65-31.05-65.09-56.55-23.77-15.77-33.28-37.93-37.08-53.18-62.93-22.42-127.34,17.92-127.34,17.92,0,0,99.05,15.11,132.72,109.14,26.18,73.09,85.86,109.65,111.15,122.31-15.83-11.77-31.73-30.93-32.94-41.2Z"/>
  <path class="cls-5" d="M367.41,582.65s-.01,7.12,2.54,17.34c3.8,15.25,13.31,37.41,37.08,53.18,38.44,25.5,58.55,45.02,65.09,56.55,1.21,2.14,1.96,4,2.27,5.57,0,0-21.79-115.86-106.97-132.65Z"/>
  <path class="cls-8" d="M759.6,164.56s24.45,97.73-17.83,157.84c-52.1,74.07-65.69,155.39-39.59,212.18,44.33,33.76,77.23,81.66,77.23,81.66-31.7-82.28,19.81-124.25,43.58-246.83,23.77-122.57-29.71-201.49-63.39-204.85Z"/>
  <path class="cls-2" d="M614.99,386.19s-1.98,40.3,17.83,99.07c1.79,5.32,1.71,11.11.2,17.38,24.1,2.87,47.94,15.77,69.16,31.93-26.1-56.79-12.51-138.11,39.59-212.18,42.28-60.11,17.83-157.84,17.83-157.84-22.38,77.22-120.83,186.13-158.03,225.33-6.06,6.39-10.5,10.93-12.71,13.17,7.9-7.33,16.58-13.06,26.14-16.87Z"/>
  <path class="cls-4" d="M702.18,534.57c-21.22-16.16-45.06-29.07-69.16-31.93-6.86,28.34-43.17,66.6-69.53,116.95-16.12,30.79-41.15,119.63-28.41,176.72,12.87,1.05,23.97,3.03,30.16,5.94-17.31-26.49-22.02-59.66-13.35-92.53-1.21,2.14-1.96,4-2.27,5.57,0,0,21.79-115.86,106.97-132.65,0,0,.01,7.1-2.52,17.29,62.63-22.61,125.34,16.3,125.34,16.3,0,0-32.9-47.9-77.23-81.66Z"/>
  <path class="cls-6" d="M632.82,485.26c-19.81-58.77-17.83-99.07-17.83-99.07-9.56,3.81-18.24,9.54-26.14,16.87-76.06,70.59-78.64,290.64-75.48,392.36.87,0,1.75,0,2.62.02,6.54.08,13.01.38,19.08.87-12.74-57.1,12.3-145.93,28.41-176.72,26.36-50.36,62.68-88.61,69.53-116.95,1.52-6.27,1.6-12.06-.2-17.38Z"/>
  <path class="cls-9" d="M654.07,599.94c-3.79,15.25-13.29,37.44-37.1,53.23-38.44,25.5-58.55,45.02-65.09,56.55-8.67,32.87-3.97,66.04,13.35,92.53,3.55,1.67,5.49,3.64,5.22,5.92-1.2,10.26-17.11,29.42-32.94,41.2,25.29-12.66,84.97-49.22,111.15-122.31,33.68-94.03,130.74-110.82,130.74-110.82,0,0-62.71-38.91-125.34-16.3Z"/>
  <path class="cls-5" d="M616.97,653.17c23.8-15.79,33.3-37.98,37.1-53.23,2.54-10.2,2.52-17.29,2.52-17.29-85.18,16.79-106.97,132.65-106.97,132.65.31-1.57,1.05-3.44,2.27-5.57,6.54-11.53,26.65-31.05,65.09-56.55Z"/>
  <path class="cls-5" d="M570.45,808.17c.27-2.28-1.67-4.25-5.22-5.92-6.19-2.91-17.29-4.88-30.16-5.94-6.08-.5-12.54-.79-19.08-.87-.87-.01-1.74-.02-2.62-.02-.91,0-1.82,0-2.73,0-7.42.03-14.82.33-21.7.89-12.88,1.05-23.97,3.03-30.17,5.94-3.55,1.67-5.49,3.64-5.22,5.91,1.2,10.26,17.11,29.43,32.94,41.2,9.65,7.18,19.28,11.61,25.52,9.59,6.24,2.02,15.86-2.41,25.52-9.59,15.83-11.77,31.73-30.93,32.94-41.2Z"/>
</svg>